<svg width="53" height="39" viewBox="0 0 53 39" fill="none" xmlns="http://www.w3.org/2000/svg">
<path d="M48.1667 14.8333H4.83337M24.3334 23.5H13.5M4.83337 10.9333L4.83337 27.4C4.83337 29.8269 4.83337 31.0403 5.30568 31.9673C5.72113 32.7827 6.38405 33.4456 7.19941 33.861C8.12637 34.3333 9.33981 34.3333 11.7667 34.3333L41.2334 34.3333C43.6603 34.3333 44.8737 34.3333 45.8007 33.861C46.616 33.4456 47.279 32.7827 47.6944 31.9673C48.1667 31.0403 48.1667 29.8269 48.1667 27.4V10.9333C48.1667 8.50644 48.1667 7.293 47.6944 6.36604C47.279 5.55068 46.616 4.88776 45.8007 4.47231C44.8737 4 43.6603 4 41.2334 4L11.7667 4C9.33981 4 8.12637 4 7.19942 4.4723C6.38405 4.88776 5.72113 5.55067 5.30568 6.36604C4.83337 7.29299 4.83337 8.50644 4.83337 10.9333Z" stroke="#8E939A" stroke-width="3" stroke-linecap="round" stroke-linejoin="round"/>
</svg>
