<svg width="40" height="38" viewBox="0 0 40 38" fill="none" xmlns="http://www.w3.org/2000/svg">
<path d="M30.9523 28.7955C30.2091 28.798 29.4728 28.6617 28.7858 28.3943C28.0989 28.1269 27.4749 27.7337 26.95 27.2376L21.1687 21.7819C20.9642 21.5975 20.6922 21.4946 20.4093 21.4946C20.1263 21.4946 19.8543 21.5975 19.6498 21.7819L13.849 27.2525C13.3244 27.7494 12.7006 28.1433 12.0136 28.4115C11.3267 28.6797 10.5902 28.8169 9.84668 28.8151H8.71484L16.0406 35.7238C17.1394 36.7578 18.6281 37.3385 20.1803 37.3385C21.7325 37.3385 23.2213 36.7578 24.32 35.7238L31.6605 28.8001L30.9523 28.7955Z" fill="#8E939A"/>
<path d="M9.8479 9.51541C10.5914 9.51354 11.3279 9.65067 12.0149 9.91886C12.7019 10.1871 13.3257 10.581 13.8502 11.0779L19.651 16.5497C19.8527 16.7393 20.1258 16.8457 20.4105 16.8457C20.6952 16.8457 20.9683 16.7393 21.1699 16.5497L26.95 11.0987C27.4741 10.6011 28.0978 10.2067 28.7848 9.93826C29.4719 9.66983 30.2086 9.53276 30.9523 9.53499H31.6483L24.3078 2.6124C23.7642 2.09959 23.1189 1.6928 22.4086 1.41526C21.6983 1.13772 20.937 0.994873 20.1681 0.994873C19.3993 0.994873 18.6379 1.13772 17.9276 1.41526C17.2174 1.6928 16.572 2.09959 16.0284 2.6124L8.71484 9.51541H9.8479Z" fill="#8E939A"/>
<path d="M37.7202 15.2624L33.2844 11.0791C33.1844 11.1177 33.0775 11.138 32.9694 11.139H30.9524C29.9028 11.1414 28.8966 11.5346 28.1527 12.2329L22.3726 17.6804C21.8521 18.1704 21.1467 18.4457 20.4112 18.4457C19.6757 18.4457 18.9702 18.1704 18.4497 17.6804L12.6476 12.2121C11.9039 11.5134 10.8978 11.1199 9.84797 11.1171H7.37185C7.26981 11.1149 7.16896 11.0958 7.07394 11.0607L2.61008 15.2624C1.5137 16.2985 0.897949 17.7026 0.897949 19.1664C0.897949 20.6302 1.5137 22.0342 2.61008 23.0704L7.06417 27.2709C7.15899 27.2351 7.25996 27.216 7.36208 27.2145H9.84797C10.8977 27.2116 11.9038 26.8181 12.6476 26.1195L18.4485 20.6489C19.4973 19.6609 21.3251 19.6609 22.3726 20.6489L28.1527 26.0988C28.8966 26.797 29.9028 27.1902 30.9524 27.1926H32.9694C33.0775 27.1934 33.1845 27.2137 33.2844 27.2525L37.7202 23.0693C38.264 22.5566 38.6953 21.948 38.9896 21.2782C39.2839 20.6083 39.4354 19.8903 39.4354 19.1652C39.4354 18.4401 39.2839 17.7222 38.9896 17.0523C38.6953 16.3824 38.264 15.7738 37.7202 15.2612" fill="#8E939A"/>
</svg>
